name Walk8.mot
datacolumns 19
datarows 10
range 1.53300000 1.54200000
endheader

                time	   L_ground_force_vx	   L_ground_force_vy	   L_ground_force_vz	   L_ground_force_px	   L_ground_force_py	   L_ground_force_pz	   R_ground_force_vx	   R_ground_force_vy	   R_ground_force_vz	   R_ground_force_px	   R_ground_force_py	   R_ground_force_pz	   L_ground_torque_x	   L_ground_torque_y	   L_ground_torque_z	   R_ground_torque_x	   R_ground_torque_y	   R_ground_torque_z	
          1.53300000	         18.50636921	        616.13025276	         37.86547860	         -0.19191465	          0.00000000	         -0.03418192	         -0.07070682	          0.39560039	         -0.01554407	          0.00033964	          0.00000000	          0.00015681	          0.00000000	         -1.42267755	          0.00000000	          0.00000000	         -0.00021987	          0.00000000	
          1.53400000	         18.60451015	        616.77369956	         38.01752050	         -0.19124995	          0.00000000	         -0.03423472	         -0.07310681	          0.41195687	         -0.01600716	          0.00034514	          0.00000000	          0.00015926	          0.00000000	         -1.42523355	          0.00000000	          0.00000000	         -0.00023915	          0.00000000	
          1.53500000	         18.70216812	        617.42574697	         38.17062367	         -0.19058101	          0.00000000	         -0.03428839	         -0.07542790	          0.42813193	         -0.01644717	          0.00034974	          0.00000000	          0.00016129	          0.00000000	         -1.42789087	          0.00000000	          0.00000000	         -0.00025923	          0.00000000	
          1.53600000	         18.79939281	        618.08660803	         38.32490479	         -0.18990792	          0.00000000	         -0.03434295	         -0.07765317	          0.44404192	         -0.01686015	          0.00035332	          0.00000000	          0.00016283	          0.00000000	         -1.43064435	          0.00000000	          0.00000000	         -0.00028010	          0.00000000	
          1.53700000	         18.89623888	        618.75653505	         38.48047887	         -0.18923075	          0.00000000	         -0.03439842	         -0.07976451	          0.45959649	         -0.01724187	          0.00035577	          0.00000000	          0.00016384	          0.00000000	         -1.43348852	          0.00000000	          0.00000000	         -0.00030175	          0.00000000	
          1.53800000	         18.99276647	        619.43582356	         38.63745876	         -0.18854961	          0.00000000	         -0.03445482	         -0.08174264	          0.47469837	         -0.01758785	          0.00035698	          0.00000000	          0.00016428	          0.00000000	         -1.43641772	          0.00000000	          0.00000000	         -0.00032418	          0.00000000	
          1.53900000	         19.08904166	        620.12481530	         38.79595465	         -0.18786460	          0.00000000	         -0.03451218	         -0.08356699	          0.48924314	         -0.01789334	          0.00035682	          0.00000000	          0.00016407	          0.00000000	         -1.43942609	          0.00000000	          0.00000000	         -0.00034734	          0.00000000	
          1.54000000	         19.18513693	        620.82389983	         38.95607341	         -0.18717583	          0.00000000	         -0.03457052	         -0.08521574	          0.50311895	         -0.01815333	          0.00035518	          0.00000000	          0.00016317	          0.00000000	         -1.44250748	          0.00000000	          0.00000000	         -0.00037123	          0.00000000	
          1.54100000	         19.28113197	        621.53351526	         39.11791778	         -0.18648341	          0.00000000	         -0.03462985	         -0.08666578	          0.51620633	         -0.01836251	          0.00035192	          0.00000000	          0.00016151	          0.00000000	         -1.44565527	          0.00000000	          0.00000000	         -0.00039580	          0.00000000	
          1.54200000	         19.37711474	        622.25414820	         39.28158549	         -0.18578747	          0.00000000	         -0.03469018	         -0.08789263	          0.52837797	         -0.01851528	          0.00034691	          0.00000000	          0.00015902	          0.00000000	         -1.44886233	          0.00000000	          0.00000000	         -0.00042102	          0.00000000	
